<?xml version="1.0" encoding="utf-8"?>
<svg xmlns="http://www.w3.org/2000/svg"
	xmlns:xlink="http://www.w3.org/1999/xlink"
	width="9px" height="9px" viewBox="0 0 9 9">
<path fillRule="evenodd" d="M 4.71 0.15C 4.71 0.15 5.86 2.99 5.86 2.99 5.86 2.99 8.79 3.25 8.79 3.25 8.99 3.27 9.07 3.54 8.92 3.68 8.92 3.68 6.7 5.7 6.7 5.7 6.7 5.7 7.36 8.7 7.36 8.7 7.41 8.91 7.19 9.08 7.02 8.96 7.02 8.96 4.5 7.37 4.5 7.37 4.5 7.37 1.98 8.96 1.98 8.96 1.81 9.07 1.59 8.91 1.64 8.7 1.64 8.7 2.3 5.7 2.3 5.7 2.3 5.7 0.08 3.68 0.08 3.68-0.07 3.54 0.01 3.27 0.21 3.25 0.21 3.25 3.14 2.99 3.14 2.99 3.14 2.99 4.29 0.15 4.29 0.15 4.37-0.05 4.63-0.05 4.71 0.15Z" fill="rgb(127,127,127)"/></svg>